<?xml version="1.0" encoding="utf-8"?>
<!-- Generator: Adobe Illustrator 21.0.0, SVG Export Plug-In . SVG Version: 6.00 Build 0)  -->
<svg version="1.1" id="Layer_1" xmlns="http://www.w3.org/2000/svg" xmlns:xlink="http://www.w3.org/1999/xlink" x="0px" y="0px"
	 viewBox="0 0 512 512" style="enable-background:new 0 0 512 512;" xml:space="preserve">
<style type="text/css">
	.st0{fill:#3F51B5;}
	.st1{fill:#FFFFFF;}
	.st2{fill:#8762C6;}
	.st3{fill:#9575CD;}
</style>
<circle class="st0" cx="256" cy="256" r="256"/>
<path class="st1" d="M373.7,125.5c0-26.9-21.8-48.7-48.7-48.7c-4,0-7.9,0.5-11.7,1.4c-6.5-25.6-29.7-44.5-57.3-44.5
	c-27.6,0-50.8,18.9-57.3,44.5c-3.7-0.9-7.7-1.4-11.7-1.4c-26.9,0-48.7,21.8-48.7,48.7L373.7,125.5L373.7,125.5z"/>
<path class="st2" d="M356.5,186.4l-58.2,78.2L231,381.4l98.8,84.3c58.7-20.6,106.1-65.2,130.6-122.1l-45.6-79L356.5,186.4z"/>
<path class="st1" d="M356.5,163.9l58.2,100.7l-29.1,21.5l-29.1-21.5l-29.1,21.5l-29.1-21.5C330.6,208.9,356.5,163.9,356.5,163.9z"/>
<path class="st3" d="M155.5,186.4l-58.2,78.2l-45.6,79c34,79.2,112.7,134.6,204.3,134.6c25.8,0,50.6-4.4,73.7-12.5l-116.1-201
	L155.5,186.4z"/>
<path class="st1" d="M155.5,163.9L97.3,264.7l29.1,21.5l29.1-21.5l29.1,21.5l29.1-21.5C181.4,208.9,155.5,163.9,155.5,163.9z"/>
<g>
	<circle class="st1" cx="161.4" cy="404.9" r="8.4"/>
	<circle class="st1" cx="141.2" cy="371.1" r="8.4"/>
</g>
<circle class="st1" cx="385.6" cy="331.2" r="8.4"/>
</svg>
